<svg width="183" height="100" viewBox="0 0 183 100" fill="none" xmlns="http://www.w3.org/2000/svg">
<g clip-path="url(#clip0_166_399)">
<rect x="-16" width="215" height="100" rx="10" fill="#FFC6FF"/>
<g filter="url(#filter0_f_166_399)">
<ellipse cx="72.5" cy="164.5" rx="76.5" ry="80.5" fill="#FF83FF"/>
</g>
<g filter="url(#filter1_f_166_399)">
<path d="M-58.9882 142.872C-60.1157 86.9652 19.9386 75.7839 60.1068 77.1816C78.8991 74.8523 111.833 74.3867 93.2285 91.1586C69.9732 112.123 114.37 142.872 105.913 176.416C97.4567 209.96 60.1068 193.887 31.2145 176.416C2.32224 158.945 -57.5788 212.755 -58.9882 142.872Z" fill="white" fill-opacity="0.8"/>
</g>
<g filter="url(#filter2_f_166_399)">
<path d="M66.7509 53.7265C56.9149 65.6581 29.4618 61.0274 16.9648 57.2207C6.78537 54.7535 3.60666 41.1483 -9.46714 29.1237C-22.541 17.099 -54.9859 51.177 -40.5661 61.2583C-26.1462 71.3397 -32.0828 97.6406 -31.8204 117.22C-31.5581 136.8 22.4655 135.597 30.8732 112.82C39.2809 90.0437 81.8545 121.075 99.4674 108.006C117.08 94.9373 108.015 60.8145 103.998 51.1124C99.9819 41.4103 79.0459 38.8121 66.7509 53.7265Z" fill="#FF00FF"/>
</g>
</g>
<defs>
<filter id="filter0_f_166_399" x="-56" y="32" width="257" height="265" filterUnits="userSpaceOnUse" color-interpolation-filters="sRGB">
<feFlood flood-opacity="0" result="BackgroundImageFix"/>
<feBlend mode="normal" in="SourceGraphic" in2="BackgroundImageFix" result="shape"/>
<feGaussianBlur stdDeviation="26" result="effect1_foregroundBlur_166_399"/>
</filter>
<filter id="filter1_f_166_399" x="-111" y="24" width="270" height="224" filterUnits="userSpaceOnUse" color-interpolation-filters="sRGB">
<feFlood flood-opacity="0" result="BackgroundImageFix"/>
<feBlend mode="normal" in="SourceGraphic" in2="BackgroundImageFix" result="shape"/>
<feGaussianBlur stdDeviation="26" result="effect1_foregroundBlur_166_399"/>
</filter>
<filter id="filter2_f_166_399" x="-96.186" y="-25.4131" width="258.115" height="208.387" filterUnits="userSpaceOnUse" color-interpolation-filters="sRGB">
<feFlood flood-opacity="0" result="BackgroundImageFix"/>
<feBlend mode="normal" in="SourceGraphic" in2="BackgroundImageFix" result="shape"/>
<feGaussianBlur stdDeviation="26" result="effect1_foregroundBlur_166_399"/>
</filter>
<clipPath id="clip0_166_399">
<rect x="-16" width="215" height="100" rx="10" fill="white"/>
</clipPath>
</defs>
</svg>
