<svg width="224" height="16" viewBox="0 0 224 16" fill="none" xmlns="http://www.w3.org/2000/svg">
<path d="M12.3552 0V9.99558C12.3552 13.3207 9.57854 16 6.16984 16C2.76115 16 0 13.3157 0 9.99558V0H2.02553V9.99558C2.02553 12.2359 3.89047 14.0725 6.16466 14.0725C8.43885 14.0725 10.3038 12.2308 10.3038 9.99558V0H12.3552Z" fill="#FF00FF"/>
<path d="M28.3937 15.778L22.2083 7.4929H19.8875V15.778H17.9293V0H23.55C24.5758 0 25.529 0.398612 26.2594 1.11006C26.9898 1.82151 27.3991 2.74992 27.3991 3.74898C27.3991 5.49984 26.1454 6.9631 24.4877 7.3819L30.7456 15.778H28.3937ZM19.8823 5.58562H23.5449C24.5913 5.58562 25.4305 4.76821 25.4305 3.74393C25.4305 2.71965 24.5913 1.90224 23.5449 1.90224H19.8823V5.58562Z" fill="#FF00FF"/>
<path d="M34.9469 0H40.7697C41.7954 0 42.7693 0.398612 43.479 1.11006C44.2094 1.79628 44.6187 2.74992 44.6187 3.74898C44.6187 4.52602 44.3907 5.25765 43.9349 5.87827L43.9142 5.89846L43.9349 5.91864C44.5721 6.16083 45.1626 6.53926 45.6392 7.0287C46.639 7.98234 47.1882 9.269 47.1882 10.6414C47.1882 12.0139 46.6442 13.2804 45.6392 14.2542C44.6342 15.228 43.3391 15.783 41.956 15.783H34.9469V0ZM40.7697 5.54021C41.7695 5.52003 42.588 4.7228 42.588 3.74393C42.588 2.76506 41.7902 1.97288 40.7697 1.92747H36.9724V5.54021H40.7697ZM41.9508 13.8505C43.7277 13.8051 45.1574 12.3418 45.1574 10.6364C45.1574 8.93094 43.7225 7.48786 41.9508 7.46768H36.9673V13.8505H41.9508Z" fill="#FF00FF"/>
<path d="M61.1545 11.1914H54.5339L52.7364 15.778H50.5502L56.7874 0H58.901L65.1589 15.778H62.9521L61.1545 11.1914ZM57.8546 2.86093L55.3317 9.24377H60.3619L57.8598 2.86093H57.8546Z" fill="#FF00FF"/>
<path d="M72.2094 3.29991V15.7729H70.1632V0H72.3908L81.0368 12.473V0H83.0831V15.778H80.8762L72.2094 3.30495V3.29991Z" fill="#FF00FF"/>
<path d="M107.654 0V1.90728H99.4635V5.6058H106.607V7.57868H99.4635V13.8253H107.446V15.7729H97.412V0H107.654Z" fill="#FF00FF"/>
<path d="M112.751 0H114.797V13.8505H123.671V15.778H112.751V0Z" fill="#FF00FF"/>
<path d="M139.052 0V1.90728H130.862V5.6058H138.006V7.57868H130.862V13.8253H138.845V15.7729H128.81V0H139.052Z" fill="#FF00FF"/>
<path d="M144.149 0H149.791C150.817 0 151.791 0.398612 152.521 1.11006C153.251 1.82151 153.661 2.7701 153.661 3.76916C153.661 5.85304 151.91 7.51309 149.791 7.51309H146.175V15.778H144.149V0ZM151.609 3.76916C151.609 2.7701 150.791 1.92747 149.791 1.92747H146.175V5.58562H149.791C150.791 5.58562 151.609 4.76821 151.609 3.76916Z" fill="#FF00FF"/>
<path d="M168.989 7.5585H160.685V15.778H158.639V0H160.685V5.62599H168.989V0H171.036V15.778H168.989V7.5585Z" fill="#FF00FF"/>
<path d="M186.08 11.1914H179.459L177.661 15.778H175.475L181.707 0H183.821L190.079 15.778H187.872L186.074 11.1914H186.08ZM182.78 2.86093L180.257 9.24377H185.287L182.785 2.86093H182.78Z" fill="#FF00FF"/>
<path d="M197.135 3.29991V15.7729H195.088V0H197.316L205.962 12.473V0H208.008V15.778H205.801L197.135 3.30495V3.29991Z" fill="#FF00FF"/>
<path d="M217.68 1.94765H213.401V0H224V1.94765H219.721V15.7729H217.675V1.94765H217.68Z" fill="#FF00FF"/>
</svg>
