<svg width="325" height="156" viewBox="0 0 325 156" fill="none" xmlns="http://www.w3.org/2000/svg">
<path d="M205.177 20.8423C203.727 22.0074 202.547 22.5485 201.404 23.0822C198.465 24.4502 195.925 25.6227 190.581 36.3259C190.483 36.5138 188.1 40.9408 185.387 41.5046L185.207 41.5421L185.222 41.7225C185.244 42.1059 185.237 42.3539 185.244 42.3539V42.4065C184.583 51.2156 181.787 57.409 178.202 64.5795C174.677 71.6147 175.631 78.2741 176.007 80.1682V80.2133C176.398 81.9195 176.217 82.6786 176.007 83.0169C175.872 83.2273 175.736 83.2649 175.699 83.2724C173.729 83.9639 169.573 84.9861 167.904 83.8812C167.431 83.5656 167.183 83.1146 167.145 82.4907V82.4231C167.13 82.3404 167.13 82.2728 167.13 82.2051C167.13 82.2051 167.13 82.0397 167.138 81.8518C167.145 81.6489 167.318 80.6417 167.619 79.2888C167.671 79.1234 168.912 75.2977 168.664 73.3359C168.664 73.2908 168.506 71.8552 168.273 70.4346L168.205 70.0288L167.919 70.3219C167.16 71.0961 166.168 71.4869 164.958 71.4869C164.252 71.4869 163.598 71.1788 163.034 70.5775C160.959 68.3526 159.87 61.806 159.96 52.1476L159.539 52.125C159.095 55.9734 158.622 59.6939 158.622 59.7691C158.832 63.7226 159.148 66.5863 159.584 68.518C160.163 71.051 160.869 73.584 161.486 75.8088L161.583 76.1695C161.824 77.0264 162.049 77.8382 162.252 78.5973L162.538 79.7172C162.763 80.6041 162.921 81.3182 163.019 81.9045L163.214 82.7763C163.214 82.7763 165.65 90.6384 159.171 90.2926C152.699 89.9469 151.549 87.8198 151.542 87.3988C151.279 87.0832 150.933 86.0985 151.527 83.1146C152.083 80.3185 153.503 70.382 148.25 59.8743C147.43 58.2433 146.558 56.6348 145.626 54.9136C141.801 47.8558 137.464 39.8585 138.013 30.4857V30.403L137.967 30.3429C134.72 26.2691 130.812 23.9315 127.016 21.6541C125.265 20.6018 123.612 19.6097 122.026 18.4522C120.019 17.0015 118.929 15.3329 118.786 13.5065C118.568 10.6353 120.748 8.41045 120.831 8.32777C131.601 -1.83421 152.729 0.480796 153.631 0.586024C154.36 0.706284 158.096 1.3602 160.456 2.77326L160.509 2.80332H160.524C161.658 3.29939 164.778 4.40428 170.099 4.3667C170.167 4.3667 170.242 4.3667 170.317 4.3667C171.151 4.3667 172.151 4.49448 173.294 4.75755C177.24 5.65198 182.614 5.48663 187.356 5.3363H187.469C190.566 5.23859 193.49 5.14088 195.639 5.35885C199.751 5.76473 206.853 9.37253 208.191 13.8522C208.913 16.295 207.898 18.6476 205.17 20.8574L205.177 20.8423Z" fill="url(#paint0_linear_102_258)"/>
<path d="M170.911 41.4219C169.814 45.2477 171.708 48.2015 173.587 48.6675C174.571 48.9081 175.917 48.2391 177.766 45.894C177.766 45.894 173.564 46.7359 174.669 40.535C174.669 40.535 172.038 39.2346 170.918 41.4219H170.911Z" fill="white"/>
<path d="M158.389 35.6268C158.389 35.6268 158.126 36.3785 158.066 36.5438C157.479 38.0396 156.202 40.6702 156.021 41.0461L155.954 41.0912C154.541 40.9784 150.985 40.7153 149.715 38.4154C148.362 35.9801 150.309 32.7782 150.309 32.7782C151.925 35.8899 153.331 36.8144 154.383 36.6265C155.029 36.5062 155.413 35.9049 155.683 35.5066C155.683 35.5066 157.179 34.1912 158.396 35.6193L158.389 35.6268Z" fill="white"/>
<path d="M159.479 90.6083C157.998 90.6083 156.645 90.3151 156.54 90.2926C156.375 90.255 156.262 90.0897 156.299 89.9168C156.337 89.7514 156.51 89.6462 156.675 89.6763C156.713 89.6838 160.787 90.5632 162.305 89.2779C162.696 88.9472 162.876 88.4962 162.846 87.9099C162.816 87.2786 162.53 86.8952 162.019 86.805C161.313 86.6773 160.448 87.1433 160.17 87.8047C160.118 87.9175 160.005 87.9926 159.885 87.9926C159.757 87.9926 159.644 87.9175 159.599 87.8047C159.599 87.7897 159.02 86.4593 157.998 86.2639C157.382 86.1436 156.683 86.4668 155.946 87.226C155.886 87.2936 155.796 87.3237 155.706 87.3162C155.615 87.3162 155.533 87.2635 155.473 87.1959C155.465 87.1809 154.593 86.076 153.654 86.1887C153.083 86.2564 152.571 86.775 152.128 87.7296C152.075 87.8423 151.963 87.9099 151.842 87.9099C151.797 87.9099 151.542 87.8949 151.309 87.6168C150.783 86.9779 150.76 85.4446 151.234 83.0695C151.79 80.296 153.188 70.4497 147.987 60.0321C147.175 58.4086 146.303 56.8001 145.378 55.0939C141.508 47.961 137.178 39.9712 137.719 30.5233C134.518 26.5171 130.669 24.2096 126.904 21.9548C125.137 20.895 123.469 19.8953 121.868 18.7303C119.778 17.212 118.651 15.4757 118.501 13.5591C118.268 10.5451 120.545 8.22254 120.643 8.12483C131.646 -2.28519 153.451 0.270341 153.669 0.292889C153.962 0.337987 160.554 1.39778 162.237 3.93828C162.613 4.50951 162.733 5.11833 162.575 5.74969C161.937 8.31274 159.772 8.24509 157.036 8.1549C155.585 8.1098 153.947 8.05719 152.196 8.36535C145.709 9.50783 140.681 16.543 138.742 27.1786C138.546 28.2459 138.418 29.2906 138.351 30.3128C139.704 32.0341 140.936 34.071 142.004 36.5288C144.792 42.9702 147.055 46.1721 149.121 46.6006C150.189 46.8185 151.301 46.33 152.639 45.0673C153.481 44.2705 154.511 42.9928 155.495 41.3768C152.421 41.1362 150.414 40.2042 149.505 38.5958C148.062 36.0252 150.008 32.7631 150.091 32.6278C150.151 32.5301 150.256 32.47 150.369 32.4775C150.482 32.4775 150.587 32.5452 150.64 32.6429C152.038 35.3412 153.473 36.6641 154.563 36.2807C155.728 35.8674 156.314 33.7402 156.014 32.252C155.901 31.6808 155.473 30.6436 154.969 29.4485C153.451 25.8106 151.166 20.3087 153.736 18.2417C155.225 17.0466 156.322 17.4149 156.841 17.7381C157.953 18.4296 158.487 20.1508 158.111 21.8345C158.051 22.1201 157.961 22.3606 157.863 22.5636C158.141 22.9694 158.336 23.3227 158.381 23.4129C160.914 29.7491 159.02 36.3108 156.54 40.8131C156.758 40.8131 156.983 40.8206 157.216 40.8206C157.277 40.8206 158.72 40.8506 158.72 43.5189C158.72 43.7594 158.72 44.1277 158.72 44.6163C158.705 46.8261 158.667 51.2682 158.802 55.9057C159.193 52.6587 159.712 48.1715 159.892 45.879C159.907 45.7061 160.065 45.5784 160.23 45.5859C160.403 45.6009 160.531 45.7512 160.524 45.9166C160.509 46.1195 159.171 65.9775 163.282 70.3895C163.793 70.9382 164.342 71.2013 164.973 71.2013C166.123 71.2013 167.033 70.833 167.747 70.0814C170.077 67.6236 169.768 61.5654 169.543 57.1459C169.483 55.9658 169.423 54.8459 169.423 53.9364C169.423 53.6809 169.423 53.4103 169.423 53.1247C169.408 50.6143 169.378 46.8712 170.43 42.196C170.482 41.9179 170.55 41.6323 170.633 41.3392C170.678 41.1738 170.843 41.0761 171.016 41.1212C171.182 41.1663 171.279 41.3317 171.242 41.497L171.204 41.6474C171.151 41.8728 171.099 42.0983 171.046 42.3238C170.655 44.4359 171.257 45.9241 171.685 46.6607C172.204 47.5627 172.933 48.179 173.684 48.3669C174.556 48.5773 175.729 47.8483 177.097 46.2398C176.548 46.2097 175.804 46.0444 175.195 45.4431C174.233 44.5035 173.955 42.8274 174.376 40.4823C174.436 40.1366 174.406 39.7833 174.286 39.4601L174.12 39.0242C173.061 36.2206 170.858 30.3955 173.542 25.4498C173.729 25.1041 173.932 24.7884 174.143 24.5253C174.03 24.1946 174 23.9165 173.993 23.8939C173.835 22.4508 174.413 21.1956 175.458 20.692C176.42 20.226 177.593 20.474 178.653 21.3384C178.991 19.3692 179.667 12.5519 173.481 9.83102C169.596 8.12483 167.529 6.34348 167.942 5.07323C168.303 3.99089 170.28 3.7654 173.376 4.47193C177.307 5.36637 182.681 5.19349 187.431 5.03565C190.558 4.93794 193.505 4.84023 195.684 5.0582C199.878 5.47911 207.139 9.16959 208.507 13.7771C209.274 16.3551 208.221 18.8205 205.38 21.1054C203.915 22.2855 202.712 22.8492 201.547 23.3828C198.661 24.7207 196.173 25.8782 190.866 36.4912C190.754 36.7017 188.394 41.1363 185.545 41.8127C185.567 42.196 185.56 42.4441 185.552 42.4516C184.891 51.3208 182.087 57.5367 178.48 64.7448C175.007 71.6974 175.939 78.2666 176.308 80.1156C176.308 80.1381 176.308 80.1607 176.308 80.1832C176.631 81.6339 176.616 82.6486 176.255 83.2123C176.06 83.5204 175.819 83.5881 175.774 83.5956C175.571 83.6708 169.926 85.64 167.724 84.1744C167.168 83.8061 166.867 83.2499 166.822 82.5433V82.4682C166.807 82.2727 166.8 82.16 166.815 81.8669C166.845 81.1979 167.213 80.7394 167.799 80.6342C168.333 80.5365 168.919 80.7545 169.295 81.1453C169.528 80.7996 169.926 80.3786 170.49 80.2659C171.016 80.1682 171.557 80.3561 172.098 80.8296C172.324 80.6192 172.707 80.3636 173.196 80.3561H173.211C173.684 80.3561 174.135 80.5816 174.579 81.0326C174.646 80.6567 174.654 80.1532 174.323 79.7473C173.775 79.0783 172.174 78.5146 167.679 79.612C167.566 79.6421 167.453 79.6045 167.378 79.5218C167.303 79.4391 167.273 79.3189 167.311 79.2136C167.326 79.176 168.588 75.3202 168.34 73.366C168.318 73.1931 168.438 73.0353 168.611 73.0127C168.784 72.9902 168.942 73.1104 168.964 73.2833C169.175 74.9444 168.423 77.7179 168.077 78.8754C171.64 78.0712 173.902 78.229 174.819 79.3489C175.654 80.3711 175.03 81.7391 175 81.7992C174.955 81.8969 174.857 81.9646 174.744 81.9796C174.639 81.9871 174.526 81.942 174.459 81.8518C174.038 81.2806 173.609 80.9799 173.211 80.9799C172.715 80.9799 172.377 81.446 172.369 81.4535C172.316 81.5286 172.226 81.5737 172.136 81.5812C172.046 81.5812 171.956 81.5587 171.888 81.4911C171.415 81.01 170.979 80.8071 170.603 80.8747C169.971 80.995 169.603 81.8368 169.603 81.8443C169.55 81.9571 169.438 82.0322 169.317 82.0322C169.19 82.0322 169.077 81.9571 169.032 81.8443C168.851 81.4159 168.288 81.1679 167.904 81.2355C167.611 81.2881 167.453 81.5061 167.438 81.8819C167.423 82.1375 167.438 82.2352 167.438 82.4231V82.4982C167.469 83.0093 167.671 83.3851 168.062 83.6407C170.009 84.941 175.541 83.0018 175.601 82.9868C175.616 82.9868 176.225 82.641 175.669 80.2208C175.669 80.1907 175.661 80.1607 175.661 80.1381C175.27 78.1163 174.398 71.4719 177.901 64.4592C181.471 57.3188 184.26 51.1554 184.906 42.4065C184.906 42.399 184.914 42.2036 184.906 41.8954C184.876 41.8954 184.846 41.8954 184.816 41.8954C183.508 41.8954 182.351 41.0235 181.366 39.3023C181.223 39.0317 180.592 37.7239 181.11 37.1376C181.373 36.8369 181.839 36.7994 182.486 37.0324C184.62 37.7915 185.274 39.8359 185.47 41.1889C188.01 40.5274 190.28 36.2582 190.303 36.2131C195.707 25.4122 198.285 24.2096 201.276 22.8191C202.404 22.293 203.576 21.7518 204.982 20.6169C207.605 18.5048 208.582 16.2574 207.898 13.9499C206.598 9.58299 199.645 6.08041 195.617 5.67453C193.482 5.46408 190.551 5.55427 187.447 5.65198C182.659 5.80231 177.24 5.9827 173.233 5.07323C170.272 4.39677 168.716 4.69742 168.536 5.26114C168.34 5.85492 169.558 7.41079 173.729 9.25227C176.879 10.6353 178.818 13.2885 179.329 16.9189C179.712 19.6397 179.179 21.9097 179.156 22.0074C179.126 22.1201 179.043 22.2028 178.938 22.2329C178.825 22.2629 178.713 22.2329 178.63 22.1502C177.653 21.1731 176.571 20.8348 175.729 21.2407C174.925 21.6316 174.481 22.6387 174.609 23.8038C174.609 23.8489 174.624 23.9015 174.631 23.9616C175.127 23.5106 175.631 23.3077 176.075 23.3979C176.616 23.5106 176.886 23.8789 176.916 23.924C177.134 24.2397 177.194 24.6681 177.067 25.0139C176.811 25.6979 175.917 25.9684 175.27 25.788C174.895 25.6828 174.624 25.4348 174.436 25.1492C174.316 25.322 174.195 25.5175 174.075 25.7354C171.527 30.4256 173.662 36.0703 174.692 38.7837L174.857 39.2271C175.015 39.6555 175.06 40.1216 174.977 40.58C174.601 42.6846 174.827 44.2029 175.616 44.9846C176.45 45.8114 177.698 45.5784 177.706 45.5784C177.833 45.5558 177.961 45.6084 178.036 45.7212C178.104 45.8339 178.096 45.9767 178.014 46.0744C176.247 48.3293 174.774 49.2688 173.519 48.9607C172.602 48.7352 171.73 48.0061 171.129 46.9614C170.911 46.5855 170.648 46.0293 170.475 45.3078C170.001 48.5398 170.024 51.1855 170.039 53.1021C170.039 53.3953 170.039 53.6659 170.039 53.9214C170.039 54.8158 170.099 55.9207 170.159 57.0933C170.392 61.6331 170.708 67.8415 168.19 70.4948C167.363 71.3667 166.273 71.8101 164.958 71.8101C164.154 71.8101 163.432 71.4719 162.808 70.7954C160.276 68.0745 159.689 60.1674 159.652 53.9665C159.306 56.9279 158.983 59.4985 158.945 59.7615C159.118 63.1363 159.419 66.3007 159.9 68.4428C160.471 70.9457 161.177 73.4862 161.801 75.7336C162.485 78.1839 163.072 80.3035 163.35 81.8518C163.44 82.3705 163.222 82.8665 162.778 83.1597C162.342 83.4453 161.801 83.4453 161.365 83.1521C158.156 80.995 156.961 71.8026 158.314 59.739C158.006 53.8688 158.058 47.4048 158.081 44.5862C158.081 44.0977 158.081 43.7294 158.081 43.4888C158.081 41.4895 157.231 41.4219 157.194 41.4219C156.841 41.4219 156.502 41.4219 156.179 41.3993C155.119 43.2107 153.984 44.6313 153.06 45.5032C151.564 46.9163 150.271 47.4574 148.986 47.1944C146.671 46.7208 144.334 43.5039 141.425 36.7618C140.5 34.6347 139.448 32.8308 138.298 31.2674C137.998 40.1516 142.019 47.5702 145.927 54.7783C146.852 56.492 147.731 58.1005 148.55 59.739C153.849 70.3369 152.421 80.3636 151.857 83.1822C151.331 85.8279 151.557 86.775 151.737 87.1057C152.248 86.1587 152.865 85.6325 153.586 85.5498C154.533 85.4446 155.352 86.1436 155.736 86.5345C156.555 85.7904 157.352 85.4822 158.118 85.6325C158.998 85.8054 159.599 86.5345 159.915 87.0456C160.441 86.4142 161.343 86.0384 162.14 86.1812C162.936 86.324 163.44 86.9554 163.485 87.8724C163.523 88.6541 163.267 89.2854 162.718 89.7514C161.937 90.4129 160.666 90.5932 159.486 90.5932L159.479 90.6083ZM158.584 63.67C157.9 73.4562 159.08 80.8747 161.719 82.6486C161.944 82.7989 162.207 82.7989 162.44 82.6486C162.621 82.5358 162.793 82.2953 162.733 81.9796C162.463 80.4613 161.876 78.3568 161.2 75.9215C160.576 73.6741 159.862 71.1261 159.291 68.6082C158.99 67.2853 158.757 65.5716 158.584 63.67ZM181.757 37.5059C181.659 37.5059 181.606 37.5284 181.584 37.551C181.434 37.7239 181.637 38.4605 181.922 39.0092C182.786 40.5199 183.794 41.2791 184.853 41.2715C184.681 40.0765 184.117 38.2726 182.283 37.6186C182.042 37.5284 181.87 37.5059 181.764 37.5059H181.757ZM150.362 33.4471C149.903 34.4167 149.091 36.5814 150.053 38.2801C150.88 39.7457 152.827 40.58 155.848 40.768C158.336 36.401 160.313 29.8994 157.818 23.6609C157.728 23.4956 157.615 23.3002 157.487 23.1047C157.149 23.458 156.773 23.5632 156.57 23.5933C155.961 23.691 155.337 23.4129 155.052 22.9244C154.796 22.4959 154.849 21.9999 155.18 21.5639C155.495 21.1505 155.864 21.0904 156.112 21.1129C156.578 21.1505 157.044 21.5338 157.427 21.9773C157.457 21.8871 157.487 21.7894 157.51 21.6842C157.825 20.2786 157.397 18.8054 156.525 18.2568C155.856 17.8434 155.037 18.0012 154.142 18.7152C151.933 20.4891 154.112 25.7279 155.555 29.1929C156.089 30.4707 156.51 31.4779 156.638 32.1167C156.991 33.8831 156.254 36.3409 154.781 36.8595C153.812 37.1977 152.278 36.8595 150.377 33.4471H150.362ZM147.49 0.616089C140.26 0.616089 128.272 1.75856 121.071 8.57581C121.056 8.59084 118.899 10.7856 119.117 13.514C119.252 15.2352 120.304 16.8211 122.229 18.2267C123.807 19.3767 125.461 20.3688 127.219 21.4211C130.872 23.6083 134.615 25.8557 137.78 29.6138C137.855 28.7795 137.967 27.9302 138.125 27.0658C139.223 21.0227 141.214 16.2198 144.041 12.8075C146.957 9.28234 150.023 8.1098 152.083 7.7415C153.894 7.42582 155.57 7.47844 157.051 7.52353C159.937 7.61373 161.471 7.56863 161.967 5.59185C162.079 5.13336 161.997 4.70493 161.719 4.27651C160.185 1.96902 153.646 0.916739 153.586 0.909223C153.518 0.901707 151.091 0.616089 147.49 0.616089ZM174.849 24.6305C174.985 24.8861 175.173 25.1191 175.436 25.1943C175.804 25.292 176.353 25.1341 176.473 24.8034C176.533 24.6456 176.503 24.4351 176.398 24.2848C176.398 24.2848 176.24 24.0743 175.947 24.0142C175.684 23.9616 175.278 24.1645 174.849 24.6305ZM156.006 21.7368C155.924 21.7368 155.803 21.7668 155.661 21.9472C155.48 22.1727 155.45 22.4057 155.57 22.6087C155.728 22.8793 156.104 23.0371 156.45 22.977C156.698 22.9394 156.916 22.8041 157.096 22.5861C156.743 22.1427 156.352 21.7668 156.036 21.7443C156.029 21.7443 156.014 21.7443 156.006 21.7443V21.7368Z" fill="#24272A"/>
<path d="M136.216 149.987C136.036 150.257 135.81 150.513 135.547 150.753C135.284 150.994 134.976 151.204 134.638 151.377C134.3 151.55 133.931 151.693 133.533 151.791C133.135 151.888 132.721 151.941 132.278 151.941C131.489 151.941 130.752 151.798 130.075 151.52C129.399 151.242 128.813 150.851 128.317 150.355C127.821 149.859 127.43 149.273 127.152 148.589C126.874 147.905 126.731 147.161 126.731 146.349C126.731 145.537 126.874 144.793 127.152 144.109C127.43 143.425 127.821 142.839 128.317 142.343C128.813 141.847 129.399 141.456 130.075 141.178C130.752 140.9 131.489 140.757 132.278 140.757C132.939 140.757 133.601 140.885 134.262 141.148C134.923 141.411 135.487 141.839 135.961 142.44L135.014 143.147C134.901 142.974 134.751 142.809 134.563 142.636C134.375 142.463 134.157 142.313 133.909 142.185C133.661 142.057 133.398 141.952 133.12 141.869C132.841 141.786 132.556 141.749 132.278 141.749C131.594 141.749 130.985 141.877 130.444 142.125C129.903 142.373 129.444 142.711 129.068 143.132C128.692 143.553 128.407 144.041 128.204 144.598C128.001 145.154 127.903 145.74 127.903 146.349C127.903 146.958 128.001 147.544 128.204 148.1C128.407 148.656 128.692 149.145 129.068 149.566C129.444 149.987 129.903 150.325 130.444 150.573C130.985 150.821 131.594 150.949 132.278 150.949C132.556 150.949 132.834 150.926 133.112 150.874C133.39 150.821 133.661 150.738 133.924 150.618C134.187 150.498 134.442 150.332 134.675 150.13C134.908 149.927 135.126 149.664 135.329 149.355L136.216 149.987Z" fill="white"/>
<path d="M142.184 147.356V147.176C142.184 145.966 141.583 145.357 140.38 145.357C139.561 145.357 138.839 145.635 138.231 146.184L137.629 145.477C138.291 144.793 139.283 144.455 140.606 144.455C140.944 144.455 141.275 144.507 141.59 144.605C141.906 144.703 142.177 144.861 142.41 145.064C142.643 145.267 142.823 145.53 142.966 145.838C143.109 146.146 143.176 146.522 143.176 146.95V150.092C143.176 150.363 143.191 150.648 143.214 150.941C143.236 151.234 143.266 151.482 143.296 151.67H142.334C142.304 151.498 142.282 151.317 142.267 151.114C142.252 150.911 142.244 150.716 142.244 150.528H142.214C141.921 151.001 141.583 151.34 141.184 151.543C140.786 151.746 140.305 151.851 139.734 151.851C139.426 151.851 139.125 151.806 138.832 151.723C138.539 151.64 138.283 151.505 138.058 151.332C137.832 151.159 137.652 150.941 137.516 150.686C137.381 150.43 137.314 150.13 137.314 149.791C137.314 149.22 137.464 148.769 137.757 148.446C138.05 148.123 138.426 147.875 138.869 147.717C139.313 147.559 139.794 147.454 140.297 147.416C140.801 147.379 141.267 147.356 141.688 147.356H142.184ZM141.673 148.168C141.425 148.168 141.109 148.183 140.733 148.205C140.358 148.228 139.997 148.288 139.651 148.386C139.305 148.483 139.012 148.626 138.764 148.829C138.516 149.032 138.396 149.303 138.396 149.656C138.396 149.889 138.441 150.084 138.539 150.25C138.636 150.415 138.764 150.55 138.922 150.656C139.08 150.761 139.26 150.836 139.456 150.881C139.651 150.926 139.846 150.949 140.049 150.949C140.41 150.949 140.726 150.889 140.989 150.768C141.252 150.648 141.478 150.483 141.658 150.28C141.838 150.077 141.974 149.836 142.056 149.558C142.139 149.28 142.184 148.987 142.184 148.679V148.168H141.673Z" fill="white"/>
<path d="M145.476 144.635H146.468V145.808H146.498C146.656 145.567 146.852 145.364 147.07 145.191C147.288 145.018 147.521 144.883 147.761 144.77C148.002 144.658 148.25 144.583 148.505 144.53C148.761 144.477 149.001 144.455 149.234 144.455C149.783 144.455 150.286 144.545 150.745 144.733C151.203 144.921 151.594 145.176 151.925 145.507C152.256 145.838 152.511 146.229 152.699 146.68C152.887 147.131 152.977 147.619 152.977 148.153C152.977 148.686 152.887 149.175 152.699 149.626C152.511 150.077 152.256 150.468 151.925 150.798C151.594 151.129 151.203 151.385 150.745 151.573C150.286 151.761 149.783 151.851 149.234 151.851C149.001 151.851 148.761 151.828 148.505 151.776C148.25 151.723 148.002 151.648 147.761 151.535C147.521 151.422 147.288 151.287 147.07 151.114C146.852 150.941 146.656 150.738 146.498 150.498H146.468V156H145.476V144.635ZM151.895 148.153C151.895 147.762 151.835 147.394 151.707 147.055C151.579 146.717 151.406 146.417 151.173 146.168C150.94 145.92 150.662 145.717 150.339 145.575C150.016 145.432 149.648 145.357 149.234 145.357C148.821 145.357 148.445 145.432 148.107 145.575C147.769 145.717 147.468 145.92 147.22 146.168C146.972 146.417 146.776 146.717 146.634 147.055C146.491 147.394 146.423 147.762 146.423 148.153C146.423 148.544 146.491 148.912 146.634 149.25C146.776 149.588 146.972 149.889 147.22 150.137C147.468 150.385 147.769 150.588 148.107 150.731C148.445 150.874 148.821 150.949 149.234 150.949C149.648 150.949 150.016 150.874 150.339 150.731C150.662 150.588 150.94 150.385 151.173 150.137C151.406 149.889 151.579 149.588 151.707 149.25C151.835 148.912 151.895 148.544 151.895 148.153Z" fill="white"/>
<path d="M155.352 148.423C155.382 148.777 155.465 149.107 155.608 149.415C155.751 149.724 155.931 149.994 156.164 150.22C156.397 150.445 156.66 150.626 156.961 150.753C157.262 150.881 157.585 150.949 157.938 150.949C158.472 150.949 158.93 150.829 159.313 150.581C159.697 150.332 159.99 150.054 160.193 149.731L160.959 150.363C160.539 150.896 160.073 151.272 159.569 151.505C159.065 151.738 158.517 151.851 157.938 151.851C157.419 151.851 156.931 151.761 156.487 151.573C156.044 151.385 155.661 151.129 155.337 150.798C155.014 150.468 154.766 150.077 154.578 149.626C154.39 149.175 154.3 148.686 154.3 148.153C154.3 147.619 154.39 147.131 154.571 146.68C154.751 146.229 154.999 145.838 155.322 145.507C155.646 145.176 156.021 144.921 156.45 144.733C156.878 144.545 157.344 144.455 157.848 144.455C158.381 144.455 158.855 144.552 159.276 144.74C159.697 144.928 160.05 145.184 160.336 145.5C160.621 145.815 160.839 146.184 160.99 146.612C161.14 147.04 161.215 147.491 161.215 147.972V148.423H155.352ZM160.133 147.612C160.133 146.943 159.93 146.394 159.531 145.981C159.133 145.567 158.569 145.357 157.848 145.357C157.525 145.357 157.216 145.417 156.916 145.545C156.615 145.672 156.352 145.838 156.127 146.048C155.901 146.259 155.721 146.499 155.585 146.77C155.45 147.04 155.382 147.318 155.382 147.612H160.133Z" fill="white"/>
<path d="M170.971 151.67H169.889V142.02H166.326V141.027H174.534V142.02H170.971V151.67Z" fill="white"/>
<path d="M181.268 148.153C181.268 148.686 181.178 149.175 180.99 149.626C180.802 150.077 180.547 150.468 180.216 150.798C179.885 151.129 179.494 151.385 179.036 151.573C178.577 151.761 178.074 151.851 177.525 151.851C176.976 151.851 176.488 151.761 176.029 151.573C175.571 151.385 175.18 151.129 174.849 150.798C174.519 150.468 174.263 150.077 174.075 149.626C173.887 149.175 173.797 148.686 173.797 148.153C173.797 147.619 173.887 147.131 174.075 146.68C174.263 146.229 174.519 145.838 174.849 145.507C175.18 145.176 175.571 144.921 176.029 144.733C176.488 144.545 176.984 144.455 177.525 144.455C178.066 144.455 178.577 144.545 179.036 144.733C179.494 144.921 179.885 145.176 180.216 145.507C180.547 145.838 180.802 146.229 180.99 146.68C181.178 147.131 181.268 147.619 181.268 148.153ZM180.186 148.153C180.186 147.762 180.126 147.394 179.998 147.055C179.87 146.717 179.697 146.417 179.464 146.168C179.231 145.92 178.953 145.717 178.63 145.575C178.307 145.432 177.939 145.357 177.525 145.357C177.112 145.357 176.743 145.432 176.42 145.575C176.097 145.717 175.819 145.92 175.593 146.168C175.368 146.417 175.195 146.717 175.067 147.055C174.94 147.394 174.879 147.762 174.879 148.153C174.879 148.544 174.94 148.912 175.067 149.25C175.195 149.588 175.368 149.889 175.593 150.137C175.819 150.385 176.097 150.588 176.42 150.731C176.743 150.874 177.112 150.949 177.525 150.949C177.939 150.949 178.307 150.874 178.63 150.731C178.953 150.588 179.231 150.385 179.464 150.137C179.697 149.889 179.87 149.588 179.998 149.25C180.126 148.912 180.186 148.544 180.186 148.153Z" fill="white"/>
<path d="M183.373 144.635L184.996 150.348H185.026L186.905 144.635H187.928L189.807 150.348H189.837L191.46 144.635H192.633L190.408 151.67H189.296L187.431 145.898H187.401L185.537 151.67H184.425L182.2 144.635H183.373Z" fill="white"/>
<path d="M194.873 144.635C194.895 144.823 194.903 145.011 194.91 145.199C194.91 145.387 194.91 145.575 194.91 145.763H194.94C195.053 145.575 195.188 145.394 195.361 145.236C195.534 145.079 195.722 144.936 195.932 144.823C196.143 144.71 196.368 144.62 196.601 144.552C196.834 144.485 197.067 144.455 197.3 144.455C198.202 144.455 198.871 144.695 199.3 145.169C199.728 145.642 199.946 146.326 199.946 147.206V151.67H198.954V147.777C198.954 146.995 198.819 146.394 198.548 145.981C198.277 145.567 197.774 145.357 197.045 145.357C196.992 145.357 196.857 145.379 196.624 145.417C196.391 145.454 196.15 145.567 195.895 145.748C195.639 145.928 195.414 146.199 195.211 146.559C195.008 146.92 194.91 147.424 194.91 148.063V151.67H193.918V146.184C193.918 145.996 193.91 145.755 193.895 145.462C193.88 145.169 193.865 144.898 193.843 144.635H194.873Z" fill="white"/>
<path d="M17.9264 104.19V119.08C17.9264 124.033 13.8977 128.024 8.95208 128.024C4.00642 128.024 0.0078125 124.033 0.0078125 119.08V104.19H2.94664V119.08C2.94664 122.417 5.65247 125.153 8.95208 125.153C12.2517 125.153 14.9575 122.417 14.9575 119.08V104.19H17.9264Z" fill="white"/>
<path d="M41.1965 127.694L32.2222 115.352H28.8549V127.694H26.0138V104.19H34.1689C35.6571 104.19 37.0401 104.784 38.0999 105.844C39.1596 106.904 39.7534 108.287 39.7534 109.775C39.7534 112.383 37.9345 114.563 35.5293 115.186L44.6089 127.694H41.1965ZM28.8474 112.511H34.1614C35.6796 112.511 36.8973 111.293 36.8973 109.775C36.8973 108.256 35.6796 107.031 34.1614 107.031H28.8474V112.511Z" fill="white"/>
<path d="M50.7045 104.19H59.1527C60.6409 104.19 62.0539 104.784 63.0837 105.844C64.1434 106.866 64.7372 108.287 64.7372 109.775C64.7372 110.932 64.4065 112.022 63.7451 112.947L63.715 112.977L63.7451 113.007C64.6696 113.368 65.5264 113.931 66.2179 114.66C67.6685 116.081 68.4653 117.998 68.4653 120.042C68.4653 122.086 67.6761 123.973 66.2179 125.424C64.7598 126.874 62.8807 127.701 60.8739 127.701H50.7045V104.19ZM59.1527 112.443C60.6033 112.413 61.7909 111.225 61.7909 109.767C61.7909 108.309 60.6334 107.129 59.1527 107.061H53.6433V112.443H59.1527ZM60.8664 124.822C63.4444 124.755 65.5189 122.575 65.5189 120.034C65.5189 117.494 63.4369 115.344 60.8664 115.314H53.6358V124.822H60.8664Z" fill="white"/>
<path d="M88.7289 120.861H79.1232L76.5151 127.694H73.3433L82.3852 104.19H85.4519L94.5314 127.694H91.3295L88.7214 120.861H88.7289ZM83.9411 108.452L80.2807 117.96H87.5789L83.9486 108.452H83.9411Z" fill="white"/>
<path d="M104.768 109.106V127.686H101.8V104.183H105.032L117.576 122.763V104.183H120.545V127.686H117.343L104.768 109.106Z" fill="white"/>
<path d="M141.342 104.19H156.194V107.031H144.311V112.541H154.676V115.48H144.311V124.785H155.894V127.686H141.335V104.183L141.342 104.19Z" fill="white"/>
<path d="M163.59 104.19H166.559V124.822H179.434V127.694H163.59V104.19Z" fill="white"/>
<path d="M186.898 104.19H201.75V107.031H189.867V112.541H200.232V115.48H189.867V124.785H201.449V127.686H186.89V104.183L186.898 104.19Z" fill="white"/>
<path d="M209.146 104.19H217.331C218.819 104.19 220.232 104.784 221.292 105.844C222.352 106.904 222.945 108.317 222.945 109.805C222.945 112.909 220.405 115.382 217.338 115.382H212.092V127.694H209.153V104.19H209.146ZM219.969 109.805C219.969 108.317 218.782 107.061 217.331 107.061H212.085V112.511H217.331C218.782 112.511 219.969 111.293 219.969 109.805Z" fill="white"/>
<path d="M245.186 115.442H233.137V127.686H230.169V104.183H233.137V112.563H245.186V104.183H248.155V127.686H245.186V115.442Z" fill="white"/>
<path d="M269.982 120.861H260.376L257.768 127.694H254.596L263.638 104.19H266.705L275.784 127.694H272.582L269.974 120.861H269.982ZM265.194 108.452L261.526 117.96H268.824L265.194 108.452Z" fill="white"/>
<path d="M286.021 109.106V127.686H283.052V104.183H286.284L298.829 122.763V104.183H301.798V127.686H298.596L286.021 109.106Z" fill="white"/>
<path d="M315.831 107.091H309.622V104.19H325V107.091H318.792V127.686H315.823V107.091H315.831Z" fill="white"/>
<defs>
<linearGradient id="paint0_linear_102_258" x1="162.546" y1="90" x2="162.546" y2="3.16185" gradientUnits="userSpaceOnUse">
<stop offset="0.18" stop-color="white"/>
<stop offset="0.23" stop-color="#FFEFFF"/>
<stop offset="0.32" stop-color="#FFC6FF"/>
<stop offset="0.46" stop-color="#FF83FF"/>
<stop offset="0.63" stop-color="#FF28FF"/>
<stop offset="0.7" stop-color="#FF00FF"/>
</linearGradient>
</defs>
</svg>
